<?xml version="1.0" standalone="no"?>
<!DOCTYPE svg PUBLIC "-//W3C//DTD SVG 20010904//EN"
 "http://www.w3.org/TR/2001/REC-SVG-20010904/DTD/svg10.dtd">
<svg version="1.0" xmlns="http://www.w3.org/2000/svg"
 width="500.000000pt" height="500.000000pt" viewBox="0 0 500.000000 500.000000"
 preserveAspectRatio="xMidYMid meet">
<metadata>
Created by potrace 1.16, written by Peter Selinger 2001-2019
</metadata>
<g id="droneIcon" transform="translate(0.000000,500.000000) scale(0.100000,-0.100000)"
fill="#000000" stroke="none">
<path d="M1218 4830 c-313 -44 -484 -130 -703 -354 -141 -144 -195 -223 -260
-380 -76 -183 -98 -458 -57 -691 25 -138 46 -197 110 -312 148 -266 372 -462
637 -558 69 -25 72 -30 24 -44 -91 -27 -263 -119 -346 -184 -54 -42 -182 -171
-220 -222 -58 -77 -139 -214 -165 -279 -11 -28 -32 -107 -46 -176 -51 -247
-26 -536 62 -741 64 -147 119 -224 266 -369 147 -146 223 -198 381 -264 226
-93 589 -103 839 -24 144 45 361 188 478 312 115 124 195 258 266 451 6 16 13
4 35 -55 34 -92 61 -145 118 -233 55 -86 53 -84 143 -179 86 -91 159 -149 279
-220 113 -66 163 -85 311 -116 245 -50 538 -26 742 63 144 62 224 119 365 261
142 144 203 232 268 389 94 225 102 602 19 845 -53 152 -184 351 -308 468
-108 101 -294 215 -411 252 -63 20 -62 21 16 50 91 33 144 60 232 117 86 55
84 53 179 143 91 86 149 159 220 279 66 113 85 163 116 311 50 245 26 538 -63
742 -62 145 -119 223 -265 368 -148 146 -223 199 -381 264 -226 93 -587 104
-839 24 -143 -45 -361 -188 -478 -312 -101 -109 -198 -266 -247 -401 -25 -69
-30 -72 -44 -24 -27 91 -119 263 -184 346 -42 54 -171 182 -222 220 -77 58
-214 139 -279 165 -135 53 -439 88 -588 68z m337 -244 c138 -30 267 -86 363
-160 176 -135 264 -248 342 -436 60 -146 71 -422 23 -615 -17 -70 -95 -235
-123 -260 -19 -17 -21 -17 -57 0 -62 29 -172 116 -332 259 -82 75 -153 140
-156 146 -4 6 -26 -10 -53 -38 -26 -27 -56 -54 -67 -60 -18 -9 -13 -17 56 -94
224 -248 274 -310 324 -398 l36 -64 -28 -22 c-41 -34 -157 -88 -243 -116 -69
-21 -92 -23 -285 -23 -194 0 -215 2 -275 24 -333 118 -555 356 -647 693 -25
90 -25 367 -1 456 30 108 79 211 148 316 98 146 194 228 375 316 193 95 393
120 600 76z m2329 -21 c139 -37 336 -145 434 -239 104 -99 226 -317 264 -475
40 -166 26 -379 -35 -543 -80 -212 -239 -400 -427 -506 -118 -66 -198 -92
-337 -108 -119 -14 -145 -14 -267 0 -146 17 -225 41 -332 101 -85 48 -90 56
-69 102 29 62 116 172 259 332 75 82 140 152 145 156 6 3 -18 34 -52 68 l-62
63 -45 -39 c-25 -22 -96 -85 -159 -141 -144 -128 -197 -169 -273 -212 l-62
-35 -23 28 c-31 38 -86 153 -114 238 -30 95 -39 389 -15 505 32 150 168 381
283 480 174 149 361 231 566 248 101 9 242 -2 321 -23z m-2391 -2260 c79 -10
152 -25 194 -41 75 -28 184 -86 202 -107 28 -34 -55 -155 -271 -394 l-143
-158 51 -50 c28 -27 54 -57 56 -65 4 -11 29 6 89 61 252 227 311 274 399 324
l64 36 22 -28 c32 -39 88 -155 114 -238 31 -95 40 -390 16 -505 -32 -150 -168
-381 -283 -480 -223 -191 -458 -269 -745 -248 -159 12 -304 67 -469 179 -132
90 -215 191 -300 365 -66 137 -92 247 -93 399 -1 223 59 405 193 582 110 146
228 239 397 313 74 32 113 43 205 54 151 18 154 18 302 1z m2372 -20 c144 -31
380 -171 473 -281 166 -196 240 -376 249 -607 7 -160 -7 -251 -58 -383 -42
-108 -136 -262 -203 -332 -56 -59 -201 -157 -304 -204 -128 -59 -233 -81 -382
-81 -276 1 -485 90 -690 293 -90 89 -145 171 -200 296 -35 79 -42 110 -56 227
-14 123 -14 148 0 271 17 146 41 225 101 332 48 86 56 91 107 66 24 -11 77
-46 118 -78 72 -55 353 -305 365 -323 3 -5 33 19 68 52 l62 62 -66 75 c-251
284 -275 313 -324 401 l-36 63 23 18 c66 53 215 118 313 138 72 14 364 11 440
-5z"/>
<path d="M1832 4215 c-87 -50 -218 -185 -325 -337 -44 -63 -49 -67 -73 -58
-40 16 -116 12 -153 -8 -19 -9 -48 -34 -65 -55 -28 -35 -31 -46 -32 -114 l-1
-76 -44 -29 c-52 -34 -208 -194 -250 -255 -36 -52 -89 -162 -89 -184 0 -30 24
-40 61 -27 98 34 200 133 336 328 50 72 63 84 84 82 13 -2 51 -4 85 -5 53 -2
65 2 98 27 62 47 78 81 73 156 l-4 66 38 28 c56 39 239 214 270 256 38 53 83
174 75 204 -8 33 -29 33 -84 1z m-411 -472 c55 -33 62 -143 12 -183 -38 -30
-103 -27 -142 6 -101 85 16 244 130 177z"/>
<path d="M3070 4185 c-15 -18 -6 -45 38 -119 41 -67 134 -151 282 -256 87 -62
101 -75 95 -94 -25 -87 -17 -143 31 -195 45 -50 81 -65 149 -59 l56 5 41 -51
c65 -79 219 -239 253 -261 53 -36 171 -78 199 -71 31 8 32 24 7 74 -44 84
-192 229 -343 335 -63 44 -67 49 -58 73 23 60 8 148 -33 192 -42 45 -95 65
-159 59 l-59 -5 -26 41 c-30 48 -198 215 -260 258 -51 36 -162 89 -184 89 -9
0 -22 -7 -29 -15z m625 -451 c35 -16 65 -65 65 -104 0 -64 -69 -109 -145 -94
-116 21 -91 209 28 213 11 1 34 -6 52 -15z"/>
<path d="M763 1904 c-22 -58 152 -251 359 -397 63 -44 67 -49 58 -73 -16 -40
-12 -116 8 -153 9 -19 34 -48 55 -65 36 -28 45 -31 114 -31 l76 -1 33 -49 c44
-66 209 -221 285 -267 127 -77 188 -85 181 -22 -10 82 -129 209 -330 349 -91
64 -91 63 -77 137 11 56 -2 105 -41 147 -45 50 -81 65 -149 59 l-56 -5 -41 51
c-65 79 -219 239 -253 261 -42 29 -160 75 -191 75 -13 0 -27 -7 -31 -16z m675
-469 c27 -31 30 -99 6 -133 -17 -25 -64 -52 -89 -52 -31 0 -81 30 -98 59 -32
55 -15 124 38 148 45 20 115 9 143 -22z"/>
<path d="M4134 1930 c-96 -39 -193 -135 -325 -321 -61 -86 -74 -100 -93 -94
-87 25 -143 17 -195 -31 -50 -45 -65 -81 -59 -149 l5 -56 -51 -41 c-78 -64
-239 -219 -262 -253 -28 -41 -74 -159 -74 -190 0 -111 237 77 413 327 46 66
48 67 78 56 50 -17 133 -5 173 26 55 42 80 98 73 168 l-5 58 51 35 c68 45 222
209 269 286 52 85 74 147 61 168 -12 19 -31 23 -59 11z m-436 -486 c62 -43 65
-122 6 -173 -39 -35 -78 -40 -124 -16 -57 29 -65 144 -13 185 31 24 99 27 131
4z"/>
</g>
</svg>
